<svg width="14" height="8" viewBox="0 0 14 8" fill="none" xmlns="http://www.w3.org/2000/svg">
<path d="M6.50417 7.64167C6.34861 7.64167 6.19772 7.6125 6.0515 7.55417C5.90528 7.49583 5.78394 7.41806 5.6875 7.32083L0.320833 1.95417C0.106944 1.74028 0 1.46805 0 1.1375C0 0.806944 0.106944 0.534722 0.320833 0.320833C0.534722 0.106944 0.806944 0 1.1375 0C1.46806 0 1.74028 0.106944 1.95417 0.320833L6.50417 4.87083L11.0542 0.320833C11.2681 0.106944 11.5403 0 11.8708 0C12.2014 0 12.4736 0.106944 12.6875 0.320833C12.9014 0.534722 13.0083 0.806944 13.0083 1.1375C13.0083 1.46805 12.9014 1.74028 12.6875 1.95417L7.32083 7.32083C7.20417 7.4375 7.07778 7.52033 6.94167 7.56933C6.80555 7.61833 6.65972 7.64244 6.50417 7.64167Z" fill="#595959"/>
</svg>
