<svg width="223" height="25" viewBox="0 0 223 25" fill="none" xmlns="http://www.w3.org/2000/svg">
<path d="M30.3824 0.686532L30.1304 1.22653L24.7304 13.2505L21.0224 5.07853L19.2944 1.22653L19.0424 0.686532H17.8184L17.5664 1.22653L15.8384 5.07853L12.1664 13.2505L6.73041 1.22653L6.47841 0.686532H0.97041L1.54641 2.01853L11.5544 24.4465H12.6344L18.4304 11.6305L24.1544 24.4465H25.2704L27.3224 19.8025L35.3144 2.01853L35.9264 0.686532H30.3824ZM37.9548 0.686532V1.62253V5.72653H59.1948V0.686532H37.9548ZM42.9948 14.2945H57.0708V9.25453H42.9948L37.9548 9.21853V19.4065V20.3425V24.4465H59.1948V19.4065H42.9948V14.2945ZM67.8503 15.1225H77.4623C78.4703 15.3385 79.1543 16.2385 79.1543 17.2465C79.1543 18.2185 78.4703 19.0825 77.5343 19.3345H67.8503V15.1225ZM83.2943 13.7185C82.8983 12.9985 82.3943 12.3505 81.7823 11.8105C81.7103 11.7385 81.6023 11.6665 81.5303 11.5945C81.5663 11.5585 81.6023 11.4865 81.6383 11.4145C81.6383 11.3785 81.6383 11.3785 81.6743 11.3425C82.2503 10.2985 82.5743 9.07453 82.5743 7.81453C82.5743 6.59053 82.2503 5.40253 81.6743 4.32253C81.6743 4.28653 81.6383 4.25053 81.6023 4.21453C80.3423 1.98253 77.9303 0.614531 75.3383 0.614531H62.8103V5.72653H67.8503H75.9143C76.8503 5.97853 77.5343 6.84253 77.5343 7.81453C77.5343 8.85853 76.7783 9.75853 75.7703 9.97453H62.8103V24.4465H75.3383C75.6263 24.4465 75.8783 24.4465 76.1663 24.4105C76.4543 24.4465 76.7063 24.4465 76.9943 24.4465C79.6223 24.4465 82.0343 23.0425 83.2943 20.7385C83.9063 19.6945 84.2303 18.4705 84.2303 17.2465C84.2303 15.9865 83.9063 14.7985 83.2943 13.7185ZM100.721 10.0465H93.8813C92.6933 10.0465 91.7213 9.07453 91.7213 7.88653C91.7213 6.69853 92.6933 5.72653 93.8813 5.72653H101.765C102.557 5.97853 103.097 6.69853 103.097 7.56253H108.029C108.029 6.91453 107.957 6.30253 107.777 5.72653C106.985 2.81053 104.321 0.686532 101.153 0.686532H93.8813C91.2893 0.686532 88.8773 2.05453 87.6173 4.32253C87.0053 5.40253 86.6813 6.62653 86.6813 7.88653C86.6813 9.14653 87.0053 10.3705 87.6173 11.4505C87.9053 11.9545 88.2293 12.3865 88.5893 12.7825C89.9573 14.2225 91.8653 15.0865 93.8813 15.0865H100.721C101.909 15.0865 102.845 16.0585 102.845 17.2465C102.845 18.4345 101.909 19.4065 100.721 19.4065H92.9093C92.1533 19.1545 91.6133 18.4345 91.6133 17.5705H86.6813C86.6813 18.2185 86.7533 18.8305 86.8973 19.4065C87.7253 22.3225 90.3893 24.4465 93.5573 24.4465H100.721C103.277 24.4465 105.689 23.0785 106.949 20.8465C107.597 19.7305 107.921 18.5065 107.921 17.2465C107.921 15.9865 107.597 14.7625 106.949 13.6825C105.689 11.4505 103.277 10.0465 100.721 10.0465ZM121.553 0.758531C115.001 0.758531 109.709 6.08653 109.709 12.6025C109.709 19.1545 115.001 24.4465 121.553 24.4465C128.069 24.4465 133.397 19.1545 133.397 12.6025C133.397 6.08653 128.069 0.758531 121.553 0.758531ZM128.429 12.6025C128.429 16.4185 125.333 19.5145 121.553 19.5145C117.737 19.5145 114.641 16.4185 114.641 12.6025C114.641 8.82253 117.737 5.72653 121.553 5.72653C125.333 5.72653 128.429 8.82253 128.429 12.6025ZM154.577 14.9785L154.325 15.5185C153.173 17.8945 150.761 19.4065 148.133 19.4065C144.893 19.4065 142.049 17.1025 141.401 13.9345C141.293 13.5025 141.257 12.9985 141.257 12.5305C141.257 12.0625 141.293 11.6305 141.401 11.1625C142.013 7.95853 144.857 5.65453 148.133 5.65453C150.905 5.65453 153.389 7.31053 154.469 9.83053L154.721 10.4065H159.941L159.581 9.21853C158.897 6.77053 157.385 4.57453 155.369 3.02653C153.281 1.44253 150.761 0.614531 148.133 0.614531C145.253 0.614531 142.445 1.65853 140.285 3.56653C138.125 5.43853 136.721 8.03053 136.325 10.8385C136.253 11.4145 136.217 11.9545 136.217 12.5305C136.217 13.1065 136.253 13.7185 136.325 14.2945C136.721 17.1025 138.161 19.6585 140.285 21.5305C142.481 23.4385 145.253 24.4465 148.133 24.4465C150.689 24.4465 153.137 23.6545 155.225 22.1425C157.241 20.6305 158.717 18.6145 159.473 16.2385L159.869 14.9785H154.577ZM163.955 0.650533V24.4465H168.995V0.650533H163.955ZM173.799 10.1905V14.2945V24.4465H178.839V14.2945H192.915V9.25453H173.799V10.1905ZM195.039 5.72653V0.686532H173.799V5.72653H195.039ZM216.114 0.614531L215.826 1.01053L210.498 8.28253L205.17 1.01053L204.882 0.614531H198.654L199.734 2.12653L207.546 12.7825L207.762 13.1065H207.798V13.1425L207.978 13.3945V24.4465H213.018V13.3585L213.198 13.1425V13.1065H213.234L213.45 12.7825L221.262 2.12653L222.342 0.614531H216.114Z" fill="#FF4F47"/>
</svg>
