<svg width="108" height="109" viewBox="0 0 108 109" fill="none" xmlns="http://www.w3.org/2000/svg">
<circle opacity="0.5" cx="68" cy="40" r="40" fill="#FF4F47"/>
<g clip-path="url(#clip0_110_5)">
<path d="M70.4588 101.253V96.2688L76.5385 89.9633C76.6551 89.8432 76.7204 89.6802 76.7204 89.5102L76.7187 83.9977C76.7212 83.8305 76.6626 83.6621 76.5385 83.5334L70.4572 77.2299V72.2452L76.5368 65.9397C76.6534 65.8195 76.7187 65.6566 76.7187 65.4865L76.717 59.9743C76.7195 59.8069 76.6609 59.6387 76.5368 59.51L70.4555 53.2063V48.2217L76.5351 41.9163C76.652 41.7961 76.717 41.633 76.717 41.4631L76.7154 35.9421C76.7154 35.586 76.435 35.2985 76.0893 35.2985C75.7439 35.2985 75.4633 35.5868 75.4633 35.9421L75.4649 41.1988L69.8336 47.039L64.1981 41.1979L64.1964 35.9421C64.1964 35.586 63.9161 35.2985 63.5704 35.2985C63.225 35.2985 62.9446 35.5868 62.9446 35.9421V41.1997L57.315 47.0382L51.6803 41.1979L51.6778 35.9413C51.6778 35.586 51.3971 35.2976 51.0518 35.2976C50.792 35.2976 50.5702 35.459 50.4756 35.6898V35.6907C50.4609 35.7267 50.4609 35.7688 50.4533 35.8074C50.4441 35.852 50.4265 35.8941 50.4265 35.9413V41.1997L44.7969 47.0382L39.1614 41.1971L39.1597 35.9413C39.1597 35.5851 38.8793 35.2976 38.5337 35.2976C38.188 35.2976 37.9076 35.586 37.9076 35.9413V41.1988L32.278 47.0373L26.6425 41.1962L26.6409 35.9404C26.6409 35.5843 26.3604 35.2968 26.0149 35.2968C25.6693 35.2968 25.3889 35.5851 25.3889 35.9404V41.1979L19.7592 47.0364L14.1245 41.1954L14.1229 35.9396C14.1229 35.5834 13.8424 35.2959 13.4969 35.2959C13.1513 35.2959 12.8709 35.5843 12.8709 35.9396V41.1971L7.2412 47.0356L1.60402 41.1954V35.9413C1.60402 35.586 1.32358 35.2976 0.978033 35.2976C0.63249 35.2976 0.352051 35.586 0.352051 35.9413V41.4605C0.352051 41.6305 0.417152 41.7935 0.534002 41.9137L6.60939 48.2105V53.2071L0.535671 59.5082C0.478917 59.5675 0.438017 59.6361 0.407136 59.7082C0.406302 59.7108 0.403797 59.7125 0.402963 59.7151C0.370411 59.7949 0.353719 59.8798 0.353719 59.9648V59.9657V65.4848C0.353719 65.6549 0.41882 65.8178 0.535671 65.938L6.61106 72.2357V77.2325L0.537342 83.5325C0.480585 83.5919 0.439688 83.6604 0.408805 83.7327C0.407971 83.7353 0.405468 83.737 0.404634 83.7396C0.372082 83.8193 0.355387 83.9042 0.355387 83.9891C0.355387 83.9891 0.355387 83.9891 0.355387 83.99V89.5093C0.355387 89.6794 0.420492 89.8423 0.537342 89.9625L6.61271 96.2602V101.257L0.53901 107.557C0.295294 107.809 0.296962 108.217 0.54235 108.468C0.664208 108.592 0.82446 108.654 0.983041 108.654C1.14413 108.654 1.30521 108.59 1.42707 108.463L7.24037 102.434L13.0578 108.464C13.1755 108.586 13.3349 108.655 13.5019 108.655C13.6688 108.655 13.8291 108.586 13.9459 108.464L19.7584 102.435L25.575 108.464C25.6927 108.586 25.8521 108.655 26.019 108.655C26.186 108.655 26.3462 108.586 26.4631 108.464L32.2763 102.435L38.0937 108.465C38.2114 108.587 38.371 108.656 38.5379 108.656C38.7047 108.656 38.8651 108.587 38.982 108.465L44.7952 102.436L50.6126 108.466C50.7304 108.588 50.8897 108.656 51.0568 108.656C51.2236 108.656 51.3837 108.588 51.5006 108.466L57.3133 102.437L63.1307 108.467C63.2484 108.589 63.4077 108.657 63.5746 108.657C63.7417 108.657 63.9018 108.589 64.0187 108.467L69.8319 102.438L75.651 108.469C75.7729 108.596 75.9342 108.66 76.0952 108.66C76.2545 108.66 76.4141 108.598 76.536 108.473C76.7812 108.222 76.7829 107.815 76.5393 107.562L70.4588 101.253ZM75.4666 84.2501L75.4683 89.2448L69.837 95.086L64.2015 89.2448L64.1998 84.2501L69.8311 78.4099L75.4666 84.2501ZM57.3189 95.0851L51.6834 89.244L51.6817 84.2493L57.3125 78.409L62.948 84.2501V89.2466L57.3189 95.0851ZM44.8002 95.0851L39.1647 89.244L39.1631 84.2493L44.7944 78.409L50.4299 84.2501V89.2466L44.8002 95.0851ZM32.2813 95.0851L26.6458 89.244L26.6442 84.2493L32.2755 78.409L37.911 84.2501V89.2466L32.2813 95.0851ZM19.7634 95.0851L14.1279 89.244L14.1262 84.2493L19.7567 78.409L25.3922 84.2501V89.2466L19.7634 95.0851ZM7.86468 77.2299L7.86301 72.2461L13.5002 66.3998L19.129 72.234V77.2316L13.5002 83.071L7.86468 77.2299ZM7.86301 53.2054L7.86133 48.2217L13.4985 42.3754L19.1274 48.2105V53.2071L13.4985 59.0465L7.86301 53.2054ZM31.6461 48.2114V53.208L26.0165 59.0474L20.381 53.2063L20.3793 48.2225L26.0165 42.3763L31.6461 48.2114ZM44.165 48.2114V53.208L38.5353 59.0474L32.8998 53.2063L32.8982 48.2225L38.5353 42.3763L44.165 48.2114ZM51.0543 42.3763L56.6839 48.2105V53.2071L51.0551 59.0465L45.4196 53.2054L45.4179 48.2217L51.0543 42.3763ZM69.2017 48.2114L69.2034 53.2063L63.5721 59.0474L57.9366 53.2063L57.9349 48.2225L63.5721 42.3763L69.2017 48.2114ZM69.2034 72.2349L69.2051 77.2299L63.5737 83.071L57.9382 77.2299L57.9366 72.2461L63.5737 66.3998L69.2034 72.2349ZM51.0559 83.071L45.4204 77.2299L45.4188 72.2461L51.0559 66.3998L56.6848 72.2349V77.2316L51.0559 83.071ZM38.537 83.071L32.9015 77.2299L32.8998 72.2461L38.537 66.3998L44.1667 72.2349V77.2316L38.537 83.071ZM26.0182 83.071L20.3827 77.2299L20.381 72.2469L26.0182 66.3998L31.6478 72.2349V77.2316L26.0182 83.071ZM14.1262 65.2207L14.1245 60.2257L19.755 54.3855L25.3906 60.2266V65.2232L19.7617 71.0626L14.1262 65.2207ZM32.2738 54.3846L37.9093 60.2257V65.2224L32.2797 71.0618L26.6442 65.2207L26.6425 60.2257L32.2738 54.3846ZM44.7927 54.3846L50.4282 60.2257V65.2224L44.7986 71.0618L39.1631 65.2207L39.1614 60.2257L44.7927 54.3846ZM57.3108 54.3846L62.9463 60.2257V65.2224L57.3167 71.0618L51.6817 65.2207L51.6803 60.2257L57.3108 54.3846ZM75.4649 60.2257L75.4666 65.2207L69.8353 71.0618L64.1998 65.2207L64.1981 60.2257L69.8294 54.3855L75.4649 60.2257ZM1.60569 60.2257L7.23702 54.3855L12.8726 60.2266V65.2232L7.24288 71.0626L1.60569 65.2198V60.2257ZM1.60735 84.2493L7.23869 78.409L12.8742 84.2501V89.2466L7.24455 95.086L1.60735 89.2431V84.2493ZM13.5019 107.094L7.86636 101.253L7.86468 96.2697L13.5019 90.4234L19.1307 96.2576V101.256L13.5019 107.094ZM26.0199 107.094L20.3852 101.254L20.3827 96.2705L26.0199 90.4234L31.6494 96.2585V101.255L26.0199 107.094ZM38.5387 107.094L32.9032 101.253L32.9015 96.2697L38.5387 90.4234L44.1683 96.2585V101.255L38.5387 107.094ZM51.0576 107.094L45.4221 101.253L45.4204 96.2697L51.0576 90.4234L56.6864 96.2576V101.255L51.0576 107.094ZM63.5754 107.094L57.9399 101.253L57.9382 96.2705L63.5754 90.4234L69.2051 96.2585L69.2067 101.253L63.5754 107.094Z" fill="#403331" stroke="#403331"/>
</g>
<defs>
<clipPath id="clip0_110_5">
<rect width="77" height="74" fill="white" transform="translate(0 35)"/>
</clipPath>
</defs>
</svg>
