<svg width="113" height="110" viewBox="0 0 113 110" fill="none" xmlns="http://www.w3.org/2000/svg">
<circle opacity="0.5" cx="73" cy="40" r="40" fill="#FF4F47"/>
<g clip-path="url(#clip0_110_7)">
<path d="M79.7885 41.5412L79.7911 35.9448C79.7911 35.5838 79.4994 35.2924 79.1383 35.2924C78.7779 35.2924 78.4855 35.5838 78.4855 35.9448L78.4829 41.5412C78.4829 44.8083 75.8484 47.4673 72.61 47.4673C69.3699 47.4673 66.7346 44.8092 66.7346 41.5412V35.943C66.7346 35.5829 66.4422 35.2906 66.0817 35.2906C65.7216 35.2906 65.4289 35.5829 65.4289 35.943V41.5412C65.4289 44.8083 62.7939 47.4673 59.5535 47.4673C56.3177 47.4673 53.685 44.8092 53.685 41.5412V35.9448C53.685 35.5846 53.3926 35.2924 53.0324 35.2924C52.672 35.2924 52.3796 35.5846 52.3796 35.9448V41.5412C52.3796 44.8083 49.7452 47.4673 46.5068 47.4673C43.2658 47.4673 40.6287 44.8083 40.6287 41.5395V35.9448C40.6287 35.5846 40.336 35.2924 39.9759 35.2924C39.6154 35.2924 39.3231 35.5846 39.3231 35.9448V41.5386C39.3231 44.8074 36.6877 47.4665 33.4476 47.4665C30.2083 47.4665 27.5738 44.8083 27.5738 41.5404V35.9448C27.5738 35.5846 27.2814 35.2924 26.9211 35.2924C26.5608 35.2924 26.2683 35.5846 26.2683 35.9448V41.5412C26.2683 44.8083 23.633 47.4673 20.3937 47.4673C18.8245 47.4673 17.3502 46.8515 16.2406 45.7329C15.13 44.6134 14.5182 43.1243 14.5191 41.5412L14.5173 35.9448C14.5173 35.5838 14.2249 35.2924 13.8646 35.2924C13.5043 35.2924 13.2119 35.5846 13.2119 35.9448L13.2136 41.5404C13.2119 44.8083 10.5783 47.4665 7.34159 47.4665C4.09964 47.4665 1.46259 44.8074 1.46259 41.5386V35.9448C1.46259 35.5846 1.17017 35.2924 0.809857 35.2924C0.449546 35.2924 0.15712 35.5846 0.15712 35.9448V41.5386C0.15712 45.3023 3.02828 48.4007 6.68187 48.7373L6.68449 53.7153C6.68449 55.3001 6.07352 56.7884 4.963 57.907C3.8551 59.0238 2.38165 59.6388 0.814209 59.6388C0.810727 59.6388 0.808987 59.6388 0.808987 59.6388C0.448676 59.6388 0.15625 59.9302 0.15625 60.2912V65.8904C0.15625 69.654 3.02916 72.7523 6.68361 73.0872L6.681 78.0651C6.68274 79.6482 6.07265 81.1366 4.96213 82.2552C3.85423 83.3729 2.37991 83.9886 0.809857 83.9886C0.449546 83.9886 0.15712 84.2811 0.15712 84.6412V90.2348C0.15712 93.9979 3.03003 97.0953 6.68449 97.4328V102.412C6.681 105.678 4.04655 108.336 0.809857 108.336C0.449546 108.336 0.15712 108.628 0.15712 108.988C0.15712 109.349 0.449546 109.641 0.809857 109.641C3.70366 109.641 6.19884 107.901 7.33374 105.409C7.68536 106.184 8.16838 106.902 8.78456 107.523C10.1423 108.888 11.9455 109.642 13.8646 109.642C16.7593 109.642 19.2553 107.903 20.3902 105.41C20.7418 106.185 21.2248 106.902 21.8411 107.523C23.1979 108.888 25.0012 109.642 26.9185 109.642C29.8141 109.642 32.3101 107.903 33.445 105.41C33.7967 106.185 34.2796 106.903 34.8957 107.523C36.2534 108.888 38.0567 109.642 39.9759 109.642C42.873 109.642 45.3684 107.901 46.5024 105.406C47.6346 107.901 50.128 109.642 53.0228 109.642C54.9434 109.642 56.7476 108.889 58.1053 107.523C58.7215 106.902 59.2047 106.185 59.5561 105.41C60.6921 107.902 63.189 109.642 66.0852 109.642C68.9801 109.642 71.4743 107.901 72.6066 105.406C73.7396 107.901 76.2368 109.642 79.1348 109.642C79.4953 109.642 79.7876 109.349 79.7876 108.989C79.7876 108.629 79.4953 108.337 79.1348 108.337C75.8947 108.337 73.2594 105.679 73.2594 102.411V97.4337C74.9225 97.2857 76.4707 96.5674 77.6701 95.3677C79.0374 94.0005 79.7911 92.1782 79.7894 90.2383V84.6418C79.7894 84.2819 79.4967 83.9895 79.1366 83.9895H79.1357H79.1348C75.8947 83.9895 73.2594 81.3314 73.2594 78.0642V73.088C76.9129 72.7575 79.7894 69.6584 79.792 65.8904L79.7894 60.2938C79.7894 60.2025 79.7702 60.1163 79.7361 60.0372C79.6369 59.8032 79.4054 59.6388 79.1348 59.6388C79.1348 59.6388 79.1331 59.6388 79.1296 59.6388C77.5631 59.6388 76.0896 59.0238 74.9807 57.907C73.8703 56.7875 73.2585 55.2993 73.2585 53.7162V48.739C76.9137 48.4059 79.7885 45.3067 79.7885 41.5412ZM66.0817 44.5352C67.1287 46.8393 69.3376 48.4972 71.9529 48.7373V53.7153C71.9529 56.9806 69.3193 59.6388 66.0817 59.6414C62.8407 59.6414 60.2045 56.9832 60.2045 53.7153L60.2063 48.7382C62.8233 48.499 65.0348 46.8402 66.0817 44.5352ZM59.5535 96.161C56.3177 96.161 53.685 93.502 53.685 90.2348V85.2595C56.2994 85.0177 58.5074 83.3598 59.5535 81.0575C60.6004 83.3625 62.8119 85.0212 65.4289 85.2595V90.2375C65.4298 91.8215 64.8189 93.3098 63.7085 94.4284C62.5996 95.5462 61.1235 96.161 59.5535 96.161ZM46.5068 96.161C43.2658 96.1593 40.6287 93.5011 40.6287 90.2348V85.2604C43.2448 85.0212 45.4546 83.3633 46.5024 81.0593C47.5503 83.3659 49.7626 85.0255 52.3796 85.2613V90.2357C52.3796 93.5011 49.7452 96.1593 46.5068 96.161ZM33.4476 96.161C30.2083 96.1593 27.5738 93.5011 27.5738 90.2348V85.2604C30.19 85.0212 32.3997 83.3633 33.4458 81.0584C34.4937 83.3633 36.7052 85.0212 39.3231 85.2604V90.2348C39.3231 93.5011 36.6877 96.1593 33.4476 96.161ZM20.3937 96.161C17.1535 96.1593 14.5173 93.5011 14.5173 90.2348V85.2604C17.1335 85.0212 19.3441 83.3633 20.3911 81.0584C21.439 83.3633 23.6504 85.0212 26.2683 85.2604V90.2348C26.2683 93.5029 23.633 96.161 20.3937 96.161ZM7.98997 73.0863C10.6061 72.847 12.8176 71.1883 13.8646 68.8834C14.9116 71.1892 17.1231 72.8479 19.741 73.0863L19.7384 78.0633C19.7384 81.3305 17.1039 83.9886 13.8646 83.9886C10.6262 83.9886 7.98997 81.3305 7.98648 78.0642L7.98997 73.0863ZM53.022 83.9886C49.7868 83.9886 47.1549 81.3305 47.1549 78.0633L47.1567 73.0863C49.774 72.847 51.9843 71.1892 53.0324 68.8843C54.0786 71.1892 56.2866 72.847 58.9001 73.0863L58.9018 78.0633C58.901 81.3305 56.2639 83.9886 53.022 83.9886ZM39.9759 83.9886C36.7348 83.9886 34.0986 81.3305 34.0986 78.0633L34.1004 73.0854C35.7714 72.9357 37.3248 72.2104 38.526 70.9997C39.1421 70.3784 39.6259 69.6619 39.9776 68.8869C41.0255 71.1901 43.2352 72.8479 45.8514 73.0863L45.8496 78.0633C45.8496 81.3305 43.2151 83.9886 39.9759 83.9886ZM26.9211 83.9886C23.68 83.9886 21.0438 81.3305 21.0438 78.0642L21.0464 73.0872C23.6617 72.8488 25.8715 71.1918 26.9193 68.8877C27.271 69.6627 27.754 70.3793 28.3702 71.0005C29.5721 72.2113 31.1238 72.9357 32.7948 73.0863L32.793 78.0642C32.793 81.3305 30.1594 83.9886 26.9211 83.9886ZM59.5517 71.8148C56.3168 71.8148 53.685 69.1563 53.685 65.8886V60.9088C56.2985 60.667 58.5056 59.0099 59.5517 56.7084C60.5987 59.0143 62.8111 60.673 65.4289 60.9122V65.8869C65.4289 69.1555 62.793 71.8148 59.5517 71.8148ZM52.3796 65.8895C52.3796 69.1563 49.7443 71.8154 46.5042 71.8154C43.264 71.8154 40.6287 69.1572 40.6287 65.8895V60.9114C42.2996 60.7609 43.8513 60.0346 45.0534 58.8255C45.6695 58.2045 46.1533 57.4886 46.505 56.7136C47.5537 59.0186 49.7652 60.6757 52.3796 60.9114V65.8895ZM39.3231 65.8895C39.3231 67.4732 38.7113 68.9616 37.5997 70.0811C36.4911 71.1979 35.0185 71.813 33.4511 71.813C33.4493 71.813 33.4467 71.813 33.4423 71.813C31.8775 71.813 30.405 71.1979 29.2963 70.0811C28.1856 68.9616 27.5738 67.4732 27.5738 65.8895V60.9096C30.1882 60.6704 32.3971 59.0143 33.4458 56.7127C33.7975 57.4877 34.2804 58.2053 34.8966 58.8255C36.0978 60.0363 37.6512 60.7609 39.3239 60.9114V65.8895H39.3231ZM26.2683 65.8895C26.2683 69.1563 23.633 71.8154 20.3937 71.8154C17.1535 71.8154 14.5173 69.1572 14.5173 65.8895V60.9114C16.1892 60.7618 17.7419 60.0363 18.9438 58.8255C19.5591 58.2062 20.0421 57.4903 20.3937 56.7171C20.7453 57.4903 21.2266 58.2062 21.8411 58.8255C23.0421 60.0363 24.5965 60.7618 26.2683 60.9114V65.8895ZM66.0817 83.9886C62.8416 83.9886 60.2063 81.3305 60.2063 78.0633L60.2045 73.0863C62.8224 72.847 65.0339 71.1883 66.0817 68.8816C67.1287 71.1857 69.3376 72.8444 71.9529 73.0863V78.0633C71.9529 81.3305 69.3193 83.9886 66.0817 83.9886ZM53.0324 44.536C54.0786 46.8402 56.2874 48.499 58.901 48.7382L58.8992 53.7153C58.8992 56.9815 56.263 59.6388 53.022 59.6388C49.7876 59.6388 47.1567 56.9815 47.1549 53.7153V48.7382C49.7722 48.5007 51.9843 46.8419 53.0324 44.536ZM39.9759 44.5334C41.0228 46.8385 43.2335 48.4972 45.8496 48.7373V53.7153C45.8505 55.2975 45.2387 56.7858 44.1271 57.9052C43.0176 59.0221 41.5433 59.6379 39.975 59.6379C39.9741 59.6379 39.9724 59.6379 39.9706 59.6379C38.4041 59.6379 36.9306 59.023 35.8217 57.9061C34.7122 56.7875 34.0995 55.2984 34.0995 53.7144L34.0978 48.7373C36.7165 48.499 38.9289 46.8402 39.9759 44.5334ZM26.9211 44.5352C27.9681 46.8402 30.1778 48.4981 32.793 48.7373L32.7948 53.7144C32.7948 56.9806 30.1586 59.6379 26.9176 59.6379C26.9167 59.6379 26.915 59.6379 26.9133 59.6379C25.3476 59.6379 23.8758 59.023 22.7679 57.9061C21.6574 56.7875 21.0456 55.2984 21.0456 53.7144L21.043 48.7373C23.6617 48.4998 25.8732 46.8411 26.9211 44.5352ZM13.8637 44.5386C14.2153 45.3136 14.6975 46.0304 15.3137 46.6506C16.5147 47.8605 18.0674 48.5877 19.7384 48.739L19.741 53.7153C19.741 55.2993 19.1291 56.7875 18.0178 57.907C16.9098 59.0238 15.4355 59.6388 13.869 59.6388C13.8672 59.6388 13.8663 59.6388 13.8646 59.6388C10.6253 59.6388 7.98997 56.9815 7.98997 53.7153L7.98735 48.739C10.6027 48.5016 12.815 46.8437 13.8637 44.5386ZM1.46259 65.8895V60.9114C3.13621 60.7618 4.68885 60.0363 5.89077 58.8255C6.50607 58.2053 6.98822 57.4886 7.33985 56.7136C8.3877 59.0152 10.5974 60.6713 13.2119 60.9096V65.8895C13.2119 69.1546 10.5774 71.813 7.33985 71.8154C4.09877 71.8148 1.46259 69.1563 1.46259 65.8895ZM1.46259 90.2348V85.2613C3.13621 85.1107 4.68885 84.3837 5.8899 83.1729C6.5052 82.5526 6.98735 81.836 7.3381 81.0619C8.3877 83.3651 10.5983 85.0212 13.2119 85.2604V90.2348C13.2119 93.502 10.5809 96.1593 7.34505 96.161C7.34244 96.161 7.33985 96.1593 7.33723 96.1593C7.33548 96.1593 7.33374 96.1601 7.33115 96.1601C4.09444 96.1532 1.46259 93.4976 1.46259 90.2348ZM13.8646 108.335C12.2963 108.335 10.8211 107.719 9.71233 106.603C8.60094 105.483 7.9891 103.995 7.98997 102.412V97.4328C10.607 97.1953 12.8176 95.5357 13.8646 93.229C14.9116 95.5331 17.1222 97.1909 19.7384 97.4319L19.741 102.411C19.7384 105.678 17.103 108.335 13.8646 108.335ZM26.9185 108.335C25.351 108.335 23.8776 107.719 22.7679 106.603C21.6565 105.483 21.0456 103.995 21.0456 102.411L21.043 97.4328C23.6609 97.1944 25.8724 95.5357 26.9202 93.229C27.9672 95.5331 30.1769 97.1918 32.7922 97.4319L32.7939 102.411C32.793 105.678 30.1577 108.335 26.9185 108.335ZM39.9759 108.335C38.4076 108.335 36.9324 107.719 35.8226 106.603C34.7122 105.483 34.1004 103.995 34.1004 102.412L34.0986 97.4328C36.7165 97.1936 38.928 95.534 39.9759 93.229C41.0228 95.5331 43.2326 97.1918 45.8496 97.4328V102.41C45.8496 105.677 43.2151 108.335 39.9759 108.335ZM57.1776 106.603C56.069 107.72 54.592 108.335 53.0228 108.335C49.7876 108.335 47.1558 105.677 47.1558 102.409V97.4319C49.7731 97.1936 51.9852 95.5348 53.0324 93.229C54.0786 95.534 56.2874 97.1927 58.901 97.4319L58.8992 102.411C58.9001 103.996 58.288 105.484 57.1776 106.603ZM66.0844 108.335C62.8433 108.335 60.2063 105.678 60.2045 102.411L60.2063 97.4337C61.8807 97.2831 63.4333 96.5578 64.6354 95.347C65.2515 94.7267 65.7347 94.0093 66.0852 93.234C67.134 95.5348 69.3411 97.1901 71.9529 97.4302V102.409C71.9529 105.677 69.3202 108.335 66.0844 108.335ZM78.4829 85.2595V90.2366C78.4838 91.8293 77.8676 93.3229 76.7459 94.4433C75.6396 95.5488 74.1731 96.1584 72.6153 96.1584C72.6127 96.1575 72.6109 96.1584 72.6092 96.1584C69.3716 96.1584 66.7372 93.502 66.7346 90.2357V85.2587C69.3498 85.0194 71.5596 83.3616 72.6057 81.0566C73.6535 83.3633 75.865 85.0212 78.4829 85.2595ZM74.0529 58.8247C75.255 60.0363 76.8093 60.7618 78.4829 60.9114L78.4855 65.8886C78.4829 69.1563 75.8484 71.8148 72.6127 71.8148C69.3716 71.8148 66.7346 69.1546 66.7346 65.8869V60.9122C69.3481 60.6722 71.5561 59.0152 72.6039 56.7127C72.9556 57.4877 73.4377 58.2045 74.0529 58.8247Z" fill="#403331" stroke="#403331"/>
</g>
<defs>
<clipPath id="clip0_110_7">
<rect width="80" height="75" fill="white" transform="translate(0 35)"/>
</clipPath>
</defs>
</svg>
