<svg width="119" height="110" viewBox="0 0 119 110" fill="none" xmlns="http://www.w3.org/2000/svg">
<circle opacity="0.5" cx="79" cy="40" r="40" fill="#FF4F47"/>
<g clip-path="url(#clip0_110_6)">
<path d="M31.5191 97.6781C30.5554 96.7306 29.2704 96.2042 27.8783 96.2042C26.4862 96.2042 25.2012 96.7306 24.2374 97.6781C23.2737 98.6257 22.7383 99.8892 22.7383 101.258C22.7383 102.627 23.2737 103.89 24.2374 104.837C25.2012 105.785 26.5933 106.311 27.8783 106.311C29.1633 106.311 30.4483 105.785 31.5191 104.837C32.4829 103.89 33.0183 102.627 33.0183 101.258C33.0183 99.8892 32.4829 98.6257 31.5191 97.6781ZM30.2341 103.679C28.9491 104.943 26.7004 104.943 25.4154 103.679C24.7729 103.048 24.4516 102.205 24.4516 101.258C24.4516 100.31 24.7729 99.468 25.4154 98.8364C26.0579 98.2045 26.9145 97.8889 27.8783 97.8889C28.8421 97.8889 29.6987 98.2045 30.3412 98.8364C30.9837 99.468 31.305 100.31 31.305 101.258C31.305 102.1 30.8766 103.048 30.2341 103.679Z" fill="#403331" stroke="#403331"/>
<path d="M92.9855 41.0371C92.7715 40.8265 92.5571 40.7212 92.236 40.8265C91.9146 40.8265 91.7005 41.0371 91.5935 41.2476L86.3462 52.5127L83.3482 53.5655L73.4964 49.7754L72.7469 49.4595L74.0319 47.0381L79.3858 35.773C79.4932 35.5624 79.4932 35.2466 79.3858 35.036C79.2788 34.8255 79.0648 34.6149 78.7433 34.6149C68.4635 33.4568 60.3252 43.3532 59.2542 44.7219L56.4702 46.1958C56.2558 46.3011 56.1488 46.4064 56.0418 46.6169L55.3993 48.3015C55.0779 49.1437 55.5063 49.9859 56.3632 50.3018L60.6462 51.9863L60.5392 52.7232C59.6827 57.9873 58.3977 61.988 54.7568 65.2517L52.2938 67.4626L40.5146 55.987C40.5146 55.25 40.1935 54.6183 39.7651 53.9866C36.4456 50.0912 34.7322 46.9328 35.0534 46.1958C36.3386 43.0374 45.6545 42.511 50.0449 42.3004H50.2593C51.0089 42.3004 51.6514 41.6687 51.7584 40.9318C51.8654 40.1948 51.4373 39.4578 50.6874 39.142C42.8705 36.51 33.1259 34.6149 29.1638 36.2994C24.6663 38.0892 15.8855 46.3011 15.4571 46.6169C15.3501 46.7222 15.243 46.9328 15.243 47.0381C15.243 47.0381 14.3863 50.7229 12.673 52.4074C10.9596 54.0919 7.31881 54.8289 7.31881 54.8289C7.10466 54.8289 6.99756 54.9341 6.89047 55.0394L1.42923 60.4088C0.679647 61.0405 0.358398 61.7774 0.358398 62.5144C0.358398 63.2514 0.679647 63.9883 1.21507 64.5148L10.2101 73.3582C10.7455 73.8849 11.4951 74.2005 12.2447 74.2005C12.9942 74.2005 13.7438 73.8849 14.2793 73.3582L19.7405 67.989C19.8476 67.8837 19.9547 67.6732 19.9547 67.4626C19.9547 66.7257 20.0617 65.9887 20.2759 65.1464C20.5972 63.5672 21.9893 62.1986 23.7026 61.5669C25.2017 61.0405 26.5938 61.251 27.6647 62.0933L29.4851 63.6725C29.9134 64.0936 30.4488 64.3042 30.9843 64.4094L42.6565 76.0956L21.7751 95.5727C20.1688 97.1518 19.2051 99.1521 19.2051 101.468C19.2051 103.679 20.0617 105.785 21.668 107.364C23.2742 108.943 25.3088 109.786 27.5576 109.786H27.6647C29.9134 109.786 32.0551 108.838 33.6613 107.154L53.1504 86.4133L75.5309 108.733C76.1734 109.365 77.1373 109.786 78.1009 109.786C79.0648 109.786 79.9213 109.47 80.6708 108.733L85.1686 104.311C85.8111 103.679 86.2392 102.732 86.2392 101.784C86.2392 100.837 85.9181 99.9944 85.1686 99.2577L62.3597 77.1483L64.6086 74.8325C68.3565 70.9368 71.5689 70.6211 76.9229 70.0948L77.7798 69.9892C83.0267 69.4628 90.0941 67.4626 94.0565 60.5141C100.695 49.0384 92.9855 41.1423 92.9855 41.0371ZM77.0303 36.2994C77.1373 36.2994 77.1373 36.2994 77.2443 36.2994L72.4255 46.4064L71.1405 48.9331L61.0747 45.143C63.1092 42.7215 69.4271 36.2994 77.0303 36.2994ZM28.9497 60.9352C27.4505 59.6718 25.4159 59.356 23.3813 60.0929C21.1326 60.8299 19.3122 62.725 18.8838 64.8306C18.6697 65.6728 18.5626 66.4098 18.5626 67.1468L13.2084 72.3055C12.673 72.8318 11.9234 72.8318 11.388 72.3055L2.39298 63.4619C2.17882 63.2514 2.07173 62.9355 2.07173 62.6197C2.07173 62.3038 2.17882 61.988 2.39298 61.7774L7.64006 56.6186C8.60383 56.4081 11.8163 55.6711 13.6367 53.7761C15.4571 51.9863 16.4209 48.7226 16.6351 47.7751C17.9201 46.6169 25.7372 39.5631 29.5922 37.9839C33.1259 36.51 42.4421 38.405 49.7239 40.8265C42.228 41.2476 34.8392 41.9846 33.233 45.7747C32.3763 47.8803 35.9102 52.618 38.1587 55.25C38.6942 55.987 38.6942 56.9345 38.0517 57.5662L33.0188 62.5144C32.3763 63.1461 31.3055 63.1461 30.663 62.6197L28.9497 60.9352ZM32.3763 106.101C31.0913 107.364 29.4851 108.101 27.5576 108.206C25.7372 108.206 24.0238 107.575 22.7388 106.311C21.4538 105.048 20.7042 103.363 20.8113 101.574C20.8113 99.784 21.5609 98.0994 22.8459 96.9414L43.9415 77.4643L51.8654 85.3606L32.3763 106.101ZM84.3117 101.89C84.3117 102.416 84.0977 102.837 83.7763 103.153L79.2788 107.575C78.5293 108.312 77.3513 108.312 76.6018 107.575L33.233 64.3042C33.6613 64.0936 33.9826 63.883 34.3039 63.5672L39.3367 58.619C39.5511 58.4084 39.7651 58.1979 39.8721 57.9873L83.7763 100.521C84.0977 100.942 84.3117 101.363 84.3117 101.89ZM92.4501 59.8824C88.8092 66.1992 82.2772 68.0943 77.4584 68.6207L76.6018 68.726C71.0335 69.2524 67.2855 69.5684 63.2162 73.9901L60.9676 76.3064L53.3648 68.9365L55.8277 66.7257C59.7897 63.0408 61.1817 58.8296 62.1456 53.2497L62.3597 51.881C62.4667 51.4599 62.2526 51.144 61.8242 50.9335L57.0057 49.0384L57.4338 47.7751L59.7897 46.5117L72.9609 51.4599L83.1338 55.3553C83.3482 55.4606 83.5622 55.4606 83.7763 55.3553L87.4172 54.0919C87.6316 53.9866 87.8456 53.8813 87.9526 53.6708L92.7715 43.248C94.1635 45.4588 97.3759 51.4599 92.4501 59.8824Z" fill="#403331" stroke="#403331"/>
<path d="M78.6356 55.8818C78.2075 55.6712 77.6721 55.8818 77.5647 56.3029L75.2091 61.9881C74.9947 62.4092 75.2091 62.9356 75.6372 63.0409C75.7446 63.0409 75.8516 63.1462 75.9586 63.1462C76.2797 63.1462 76.6011 62.9356 76.7082 62.6198L79.0641 56.9346C79.2781 56.6188 79.0641 56.0924 78.6356 55.8818Z" fill="#403331" stroke="#403331"/>
<path d="M68.9985 52.4074C68.5704 52.1969 68.0349 52.4074 67.9279 52.8286L65.465 58.5137C65.2506 58.9348 65.465 59.4612 65.8931 59.5666C66.0001 59.5666 66.1075 59.6718 66.2145 59.6718C66.5356 59.6718 66.857 59.4612 66.964 59.1454L69.3199 53.4602C69.641 53.0391 69.427 52.618 68.9985 52.4074Z" fill="#403331" stroke="#403331"/>
<path d="M74.0318 53.6707C73.6034 53.4602 73.0679 53.6707 72.9609 54.0919L70.1769 60.8298C69.9625 61.251 70.1769 61.7774 70.605 61.8827C70.7124 61.8827 70.8194 61.988 70.9264 61.988C71.2475 61.988 71.5689 61.7774 71.6759 61.4616L74.4603 54.7236C74.6743 54.3024 74.4603 53.8813 74.0318 53.6707Z" fill="#403331" stroke="#403331"/>
</g>
<defs>
<clipPath id="clip0_110_6">
<rect width="97" height="76" fill="white" transform="translate(0 34)"/>
</clipPath>
</defs>
</svg>
